<svg width="35" height="32" viewBox="0 0 35 32" fill="none" xmlns="http://www.w3.org/2000/svg">
<path d="M9.67 26.0942C8.39933 27.4756 8.43317 29.62 9.77768 30.9645C11.1222 32.309 13.2667 32.3429 14.6481 31.0722H14.685L14.7927 30.9645L17.5555 28.1648L18.5001 27.2572C21.226 24.5312 21.226 20.0239 18.5001 17.2979L24.3858 11.3753L27.2933 8.46786C28.5639 7.08643 28.5301 4.94196 27.1856 3.59745C25.8411 2.25294 23.6966 2.21606 22.3182 3.48981H22.2813L22.1736 3.59745L19.4108 6.39418L18.4662 7.30487C15.7403 10.0677 15.7403 14.5351 18.4662 17.261L12.5775 23.1837L9.67 26.0911V26.0942Z" fill="#635BFF"/>
<path d="M11.5228 0C9.55986 0 8 1.56294 8 3.52279C8 5.48263 9.56294 7.08561 11.5228 7.08561C13.4826 7.08561 15.0856 5.48571 15.0856 3.52279C15.0856 1.55986 13.4857 0 11.5228 0Z" fill="#635BFF"/>
</svg>
