<svg width="136" height="40" viewBox="0 0 136 40" fill="none" xmlns="http://www.w3.org/2000/svg">
<path d="M10.4613 28.8325C9.34945 30.0412 9.37905 31.9176 10.5555 33.094C11.7319 34.2705 13.6084 34.3001 14.8171 33.1883H14.8494L14.9436 33.094L17.3611 30.6443L18.1876 29.8501C20.5728 27.4649 20.5728 23.5209 18.1876 21.1357L23.3376 15.9535L25.8816 13.4094C26.9935 12.2007 26.9639 10.3243 25.7874 9.14783C24.611 7.97138 22.7346 7.93912 21.5285 9.05364H21.4962L21.402 9.14783L18.9845 11.595L18.158 12.3918C15.7728 14.8093 15.7728 18.7183 18.158 21.1035L13.0053 26.2858L10.4613 28.8298V28.8325Z" fill="#635BFF"/>
<path d="M12.0824 6C10.3649 6 9 7.36757 9 9.08244C9 10.7973 10.3676 12.1999 12.0824 12.1999C13.7973 12.1999 15.1999 10.8 15.1999 9.08244C15.1999 7.36488 13.8 6 12.0824 6Z" fill="#635BFF"/>
<path d="M31.1459 20.9331C31.1459 18.2314 33.2442 16.284 35.987 16.284C38.0442 16.284 39.6899 17.3537 40.4304 19.0131L38.4282 19.8086C37.9619 18.6291 36.9607 18.0257 35.8773 18.0257C34.2179 18.0531 33.1344 19.3697 33.1344 20.9194C33.1344 22.62 34.4236 23.8131 35.9184 23.8131C37.1939 23.8131 38.2499 23.1274 38.8122 21.9891L40.4167 22.812C39.5802 24.4988 38.1127 25.5686 35.987 25.5686C33.3402 25.5686 31.1459 23.5937 31.1459 20.9331Z" fill="#635BFF"/>
<path d="M41.6415 15.708H43.5066V19.6166C43.9455 18.7388 44.9603 18.2451 45.9615 18.2451C47.4701 18.2451 48.4575 19.4108 48.4575 21.2211V25.4863H46.5786V21.3034C46.5786 20.4943 46.0575 19.8497 45.2072 19.8497C44.2472 19.836 43.5066 20.6726 43.5066 21.6188V25.4863H41.6415V15.708Z" fill="#635BFF"/>
<path d="M55.5108 21.8931C55.5108 20.7548 54.6468 19.9183 53.5359 19.9183C52.4114 19.9183 51.5474 20.7548 51.5474 21.8931C51.5474 23.0451 52.4114 23.8954 53.5359 23.8954C54.6468 23.8954 55.5108 23.0451 55.5108 21.8931ZM49.6959 21.8931C49.6959 19.7811 51.3005 18.2314 53.0834 18.2314C54.2217 18.2314 55.0582 18.78 55.5108 19.6166V18.3137H57.3622V25.4863H55.5108V24.156C55.0582 25.0063 54.2217 25.5686 53.0834 25.5686C51.3005 25.5686 49.6959 24.0463 49.6959 21.8931Z" fill="#635BFF"/>
<path d="M60.9173 25.4863H59.0522V15.708H60.9173V25.4863Z" fill="#635BFF"/>
<path d="M62.6013 25.4863V15.6943H64.4939V21.0703L66.9899 18.3137H69.047L65.9064 21.9206L69.047 25.4863H66.9899L64.4939 22.7434V25.4863H62.6013Z" fill="#635BFF"/>
<path d="M73.9413 19.9457C72.8167 19.9457 71.9664 20.796 71.9664 21.8931C71.9664 23.0451 72.8167 23.8817 73.9413 23.8817C75.0384 23.8817 75.9162 23.0451 75.9162 21.8931C75.9162 20.796 75.0384 19.9457 73.9413 19.9457ZM70.1013 25.4863V15.708H71.9664V19.6028C72.419 18.8074 73.2556 18.2314 74.3939 18.2314C76.163 18.2314 77.7676 19.7811 77.7676 21.8931C77.7676 24.06 76.163 25.5686 74.3939 25.5686C73.2556 25.5686 72.419 25.0063 71.9664 24.1834V25.4863H70.1013Z" fill="#635BFF"/>
<path d="M84.5867 21.8931C84.5867 20.7548 83.709 19.9183 82.5981 19.9183C81.4873 19.9183 80.6096 20.7548 80.6096 21.8931C80.6096 23.0451 81.5284 23.8954 82.5981 23.8954C83.6953 23.8954 84.5867 23.0451 84.5867 21.8931ZM78.7581 21.8931C78.7581 19.7811 80.445 18.2314 82.5981 18.2314C84.7787 18.2314 86.4381 19.7674 86.4381 21.8931C86.4381 24.0188 84.7101 25.5686 82.5981 25.5686C80.5136 25.5686 78.7581 24.0188 78.7581 21.8931Z" fill="#635BFF"/>
<path d="M93.2385 21.8931C93.2385 20.7548 92.3745 19.9183 91.2636 19.9183C90.139 19.9183 89.275 20.7548 89.275 21.8931C89.275 23.0451 90.139 23.8954 91.2636 23.8954C92.3745 23.8954 93.2385 23.0451 93.2385 21.8931ZM87.4236 21.8931C87.4236 19.7811 89.0282 18.2314 90.811 18.2314C91.9493 18.2314 92.7859 18.78 93.2385 19.6166V18.3137H95.0899V25.4863H93.2385V24.156C92.7859 25.0063 91.9493 25.5686 90.811 25.5686C89.0282 25.5686 87.4236 24.0463 87.4236 21.8931Z" fill="#635BFF"/>
<path d="M96.7799 18.3137H98.6313V19.7811C99.125 18.8348 100.208 18.2314 101.429 18.2314V20.1788C100.044 20.0691 98.6313 20.508 98.6313 22.1263V25.4863H96.7799V18.3137Z" fill="#635BFF"/>
<path d="M106.049 23.8817C107.146 23.8817 108.01 23.0451 108.01 21.8931C108.01 20.796 107.146 19.9457 106.049 19.9457C104.938 19.9457 104.061 20.796 104.061 21.8931C104.061 23.0451 104.938 23.8817 106.049 23.8817ZM108.01 19.6028V15.708H109.876V25.4863H108.01V24.1834C107.572 25.0063 106.735 25.5686 105.597 25.5686C103.8 25.5686 102.209 24.06 102.209 21.8931C102.209 19.7674 103.8 18.2314 105.597 18.2314C106.735 18.2314 107.572 18.8074 108.01 19.6028Z" fill="#635BFF"/>
<path d="M111.305 24.5537C111.305 23.9503 111.771 23.5663 112.388 23.5663C113.019 23.5663 113.499 23.9503 113.499 24.5537C113.499 25.1434 112.992 25.5686 112.388 25.5686C111.812 25.5686 111.305 25.1434 111.305 24.5537Z" fill="#635BFF"/>
<path d="M114.913 25.4863V18.2863H116.71V25.4863H114.913ZM115.805 15.5571C116.408 15.5571 116.847 15.9411 116.847 16.5308C116.847 17.0794 116.395 17.4771 115.805 17.4771C115.215 17.4771 114.763 17.0794 114.763 16.5308C114.763 15.9411 115.201 15.5571 115.805 15.5571Z" fill="#635BFF"/>
<path d="M121.88 23.8817C122.977 23.8817 123.841 23.0451 123.841 21.8931C123.841 20.796 122.977 19.9457 121.88 19.9457C120.769 19.9457 119.891 20.796 119.891 21.8931C119.891 23.0451 120.769 23.8817 121.88 23.8817ZM123.841 19.6028V15.708H125.706V25.4863H123.841V24.1834C123.402 25.0063 122.565 25.5686 121.427 25.5686C119.631 25.5686 118.04 24.06 118.04 21.8931C118.04 19.7674 119.631 18.2314 121.427 18.2314C122.565 18.2314 123.402 18.8074 123.841 19.6028Z" fill="#635BFF"/>
</svg>
